<svg width="29" height="29" viewBox="0 0 29 29" fill="none" xmlns="http://www.w3.org/2000/svg">
<g id="Plus">
<g id="Vector.svg">
<path d="M28.4098 14.2049C28.4098 22.05 22.05 28.4098 14.2049 28.4098C6.35974 28.4098 0 22.05 0 14.2049C0 6.35974 6.35974 0 14.2049 0C22.05 0 28.4098 6.35974 28.4098 14.2049Z" fill="white"/>
<path d="M24.1483 14.205C24.1483 19.6966 19.6965 24.1485 14.2049 24.1485C8.7133 24.1485 4.26148 19.6966 4.26148 14.205C4.26148 8.71345 8.7133 4.26163 14.2049 4.26163C19.6965 4.26163 24.1483 8.71345 24.1483 14.205Z" fill="#FF7114"/>
<path d="M19.1766 14.9151H14.9151V19.1766H13.4946V14.9151H9.23316V13.4946H13.4946V9.23317H14.9151V13.4946H19.1766V14.9151Z" fill="white"/>
</g>
</g>
</svg>
